<svg xmlns="http://www.w3.org/2000/svg" width="1080" height="502">
<rect x="50" y="40" width="1000" height="22" rx="11" ry="11" fill="#2a2a2a" /><rect x="50" y="40" width="925.0" height="22" rx="11" ry="11" fill="#4cc2ff" /><image href="assets/102ki.webp" x="125.0" y="74" width="50" height="50" /><image href="assets/103ki.webp" x="425.0" y="74" width="50" height="50" /><image href="assets/104ki.webp" x="725.0" y="74" width="50" height="50" /><image href="assets/105ki.webp" x="1025.0" y="74" width="50" height="50" /><rect x="50" y="252" width="1000" height="22" rx="11" ry="11" fill="#2a2a2a" /><rect x="50" y="252" width="74.07407407407408" height="22" rx="11" ry="11" fill="#4cc2ff" /><image href="assets/lives/dream_believers.webp" x="80.55555555555554" y="286" width="50" height="50" /><image href="assets/lives/bloom_the_dream.webp" x="136.1111111111111" y="192" width="50" height="50" /><image href="assets/lives/run_can_fun.webp" x="191.66666666666666" y="286" width="50" height="50" /><image href="assets/lives/2l_blooming_with_maru.webp" x="247.22222222222217" y="192" width="50" height="50" /><image href="assets/lives/mirapa_radio.webp" x="302.77777777777777" y="286" width="50" height="50" /><image href="assets/lives/fesxrec_live_first_crossing.webp" x="358.3333333333333" y="192" width="50" height="50" /><image href="assets/lives/series_tour.webp" x="413.8888888888889" y="286" width="50" height="50" /><image href="assets/lives/try_tri_unity_ceribu.webp" x="469.4444444444444" y="192" width="50" height="50" /><image href="assets/lives/try_tri_unity_dolche.webp" x="525.0" y="286" width="50" height="50" /><image href="assets/lives/try_tri_unity_mirapa.webp" x="580.5555555555555" y="192" width="50" height="50" /><image href="assets/lives/try_tri_unity_fan_meeting.webp" x="636.1111111111112" y="286" width="50" height="50" /><image href="assets/lives/try_tri_unity_group.webp" x="691.6666666666666" y="192" width="50" height="50" /><image href="assets/lives/fesxrec_live_first_crossing_addition.webp" x="747.2222222222222" y="286" width="50" height="50" /><image href="assets/lives/4l_bloom.webp" x="802.7777777777778" y="192" width="50" height="50" /><image href="assets/lives/u-next_music_fes.webp" x="858.3333333333334" y="286" width="50" height="50" /><image href="assets/lives/5l_4pair.webp" x="913.8888888888888" y="192" width="50" height="50" /><image href="assets/lives/103-105th_fesxrec_live_road_to_bloom.webp" x="969.4444444444445" y="286" width="50" height="50" /><image href="assets/lives/6l_bgp.webp" x="1025.0" y="192" width="50" height="50" /><rect x="50" y="402" width="1000" height="22" rx="11" ry="11" fill="#2a2a2a" /><rect x="50" y="402" width="193.79844961240312" height="22" rx="11" ry="11" fill="#4cc2ff" /><image href="assets/sehasu103.webp" x="358.3333333333333" y="436" width="50" height="50" /><image href="assets/sehasu104.webp" x="691.6666666666666" y="436" width="50" height="50" /><image href="assets/sehasu105.webp" x="1025.0" y="436" width="50" height="50" />
</svg>